<?xml version="1.0" standalone="no"?><!DOCTYPE svg PUBLIC "-//W3C//DTD SVG 1.1//EN" 	"http://www.w3.org/Graphics/SVG/1.1/DTD/svg11.dtd"><svg width="2133" height="1041" version="1.1"	xmlns="http://www.w3.org/2000/svg"><title>Krona (snapshot) - Bacteria</title><defs>	<style type="text/css">	text {font-size: 11px; font-family: sans-serif; dominant-baseline:central}	path {stroke-width:0.27499999999999997;}	path.wedge {stroke:none}	path.line {fill:none;stroke:black;}	line {stroke:black;stroke-width:0.27499999999999997;}	line.tick {stroke-width:0.5499999999999999;}	line.pattern {stroke-width:0.18333333333333332;}	circle {fill:none;stroke:black;stroke-width:0.27499999999999997;}	rect {stroke:black;stroke-width:0.27499999999999997;}	.highlight {stroke:black;stroke-width:1.375;}	.searchHighlight {fill:rgb(255, 255, 100);stroke:none;}	</style><pattern id="hiddenPattern" patternUnits="userSpaceOnUse" x="0" y="0" width="6.6" height="6.6"><line class="pattern" x1="0" y1="0" x2="3.3" y2="3.3"/><line class="pattern" x1="3.3" y1="6.6" x2="6.6" y2="3.3"/></pattern></defs><path class="wedge" fill="rgb(220,220,220)" d=" M 1014.144372163689,605.536653328505 L 1098.6490519200013,922.8779823407897 A 416.4,416.4 0 0,1 991.5000000000001,936.9 L 991.5,608.5 A 88,88 0 0 0 1014.144372163689,605.536653328505 Z "/><path class="wedge" fill="rgb(207,111,111)" d=" M 991.5,608.5 L 991.5,936.9 A 416.4,416.4 0 1,1 1336.3742248553574,753.8467999146685 L 1064.3840821019967,569.8144053614093 A 88,88 0 1 0 991.5,608.5 Z "/><path class="wedge" fill="rgb(210,121,121)" d=" M 991.5,670.779718682638 L 991.5,936.9 A 416.4,416.4 0 1,1 1390.7342124299482,638.8258366775361 L 1135.5845464276108,563.2040668798941 A 150.27971868263793,150.27971868263793 0 1 0 991.5,670.779718682638 Z "/><path class="wedge" fill="rgb(210,121,121)" d=" M 1190.0273190284574,554.0277705914275 L 1402.0859490643008,589.8407414942129 A 416.4,416.4 0 0,1 1390.7342124299482,638.8258366775361 L 1184.5385051869923,577.7131393705133 A 201.33854027845308,201.33854027845308 0 0 0 1190.0273190284574,554.0277705914275 Z "/><path class="wedge" fill="rgb(213,130,130)" d=" M 991.5,721.8385402784531 L 991.5,936.9 A 416.4,416.4 0 1,1 1279.0186161810616,219.29906150656268 L 1130.5215621632462,374.86273466193853 A 201.33854027845308,201.33854027845308 0 1 0 991.5,721.8385402784531 Z "/><path class="wedge" fill="rgb(213,130,130)" d=" M 991.5,721.8385402784531 L 991.5,936.9 A 416.4,416.4 0 1,1 1279.0186161810616,219.29906150656268 L 1130.5215621632462,374.86273466193853 A 201.33854027845308,201.33854027845308 0 1 0 991.5,721.8385402784531 Z "/><path class="wedge" fill="rgb(213,130,130)" d=" M 920.0067371249351,287.2592686186474 L 869.4685844337018,122.38281421811814 A 416.4,416.4 0 0,1 1279.0186161810616,219.29906150656268 L 1159.945509811692,344.0385718177749 A 243.95189159305863,243.95189159305863 0 0 0 920.0067371249351,287.2592686186474 Z "/><path class="wedge" fill="rgb(216,140,140)" d=" M 991.5,764.4518915930587 L 991.5,936.9 A 416.4,416.4 0 0,1 595.7199480134152,391.0893727335492 L 759.6285006317809,444.68355592244257 A 243.95189159305863,243.95189159305863 0 0 0 991.5,764.4518915930587 Z "/><path class="wedge" fill="rgb(216,140,140)" d=" M 712.4279851812252,543.8995032923024 L 576.5560584908036,555.29203076586 A 416.4,416.4 0 0,1 595.7199480134152,391.0893727335492 L 725.3167268300078,433.46442512485874 A 280.05129210438747,280.05129210438747 0 0 0 712.4279851812252,543.8995032923024 Z "/><path class="wedge" fill="rgb(219,149,149)" d=" M 991.5,800.5512921043875 L 991.5,936.9 A 416.4,416.4 0 0,1 797.9892711609748,889.2038890819965 L 861.3536751982931,768.4731040857971 A 280.05129210438747,280.05129210438747 0 0 0 991.5,800.5512921043875 Z "/><path class="wedge" fill="rgb(219,149,149)" d=" M 954.010449481976,829.2542265670306 L 941.3085263416835,933.8639751744297 A 416.4,416.4 0 0,1 797.9892711609748,889.2038890819965 L 846.9609036989648,795.896239011227 A 311.02192659207935,311.02192659207935 0 0 0 954.010449481976,829.2542265670306 Z "/><path class="wedge" fill="rgb(223,159,159)" d=" M 991.5,831.5219265920794 L 991.5,936.9 A 416.4,416.4 0 0,1 941.3085263416835,933.8639751744297 L 954.010449481976,829.2542265670306 A 311.02192659207935,311.02192659207935 0 0 0 991.5,831.5219265920794 Z "/><path class="wedge" fill="rgb(219,152,149)" d=" M 861.3536751982931,768.4731040857971 L 797.9892711609748,889.2038890819965 A 416.4,416.4 0 0,1 667.3288637255889,781.8465790986313 L 773.4775562521703,696.2695657147772 A 280.05129210438747,280.05129210438747 0 0 0 861.3536751982931,768.4731040857971 Z "/><path class="wedge" fill="rgb(219,152,149)" d=" M 861.3536751982931,768.4731040857971 L 797.9892711609748,889.2038890819965 A 416.4,416.4 0 0,1 667.3288637255889,781.8465790986313 L 773.4775562521703,696.2695657147772 A 280.05129210438747,280.05129210438747 0 0 0 861.3536751982931,768.4731040857971 Z "/><path class="wedge" fill="rgb(223,162,159)" d=" M 846.9609036989648,795.896239011227 L 797.9892711609748,889.2038890819965 A 416.4,416.4 0 0,1 667.3288637255889,781.8465790986313 L 749.3666394101565,715.7077726693218 A 311.02192659207935,311.02192659207935 0 0 0 846.9609036989648,795.896239011227 Z "/><path class="wedge" fill="rgb(219,155,149)" d=" M 773.4775562521703,696.2695657147772 L 667.3288637255889,781.8465790986313 A 416.4,416.4 0 0,1 617.5442921317351,703.6559132344487 L 739.9947666226742,643.6821569593335 A 280.05129210438747,280.05129210438747 0 0 0 773.4775562521703,696.2695657147772 Z "/><path class="wedge" fill="rgb(223,164,159)" d=" M 749.3666394101565,715.7077726693218 L 667.3288637255889,781.8465790986313 A 416.4,416.4 0 0,1 617.5442921317351,703.6559132344487 L 712.1810165194703,657.3047670530979 A 311.02192659207935,311.02192659207935 0 0 0 749.3666394101565,715.7077726693218 Z "/><path class="wedge" fill="rgb(219,156,149)" d=" M 739.9947666226742,643.6821569593335 L 617.5442921317351,703.6559132344487 A 416.4,416.4 0 0,1 598.1938445291414,657.2451208224003 L 726.9805546776583,612.4684144459264 A 280.05129210438747,280.05129210438747 0 0 0 739.9947666226742,643.6821569593335 Z "/><path class="wedge" fill="rgb(223,165,159)" d=" M 712.1810165194703,657.3047670530979 L 617.5442921317351,703.6559132344487 A 416.4,416.4 0 0,1 598.1938445291414,657.2451208224003 L 697.7275739311472,622.6391232714927 A 311.02192659207935,311.02192659207935 0 0 0 712.1810165194703,657.3047670530979 Z "/><path class="wedge" fill="rgb(219,157,149)" d=" M 726.9805546776583,612.4684144459264 L 598.1938445291414,657.2451208224003 A 416.4,416.4 0 0,1 584.5786863216447,608.8402766255663 L 717.8236318913589,579.9135653550645 A 280.05129210438747,280.05129210438747 0 0 0 726.9805546776583,612.4684144459264 Z "/><path class="wedge" fill="rgb(219,158,149)" d=" M 717.8236318913589,579.9135653550645 L 584.5786863216447,608.8402766255663 A 416.4,416.4 0 0,1 578.6203856771899,574.5313249573577 L 713.8163557284723,556.8389586177235 A 280.05129210438747,280.05129210438747 0 0 0 717.8236318913589,579.9135653550645 Z "/><path class="wedge" fill="rgb(219,158,149)" d=" M 717.8236318913589,579.9135653550645 L 584.5786863216447,608.8402766255663 A 416.4,416.4 0 0,1 578.6203856771899,574.5313249573577 L 713.8163557284723,556.8389586177235 A 280.05129210438747,280.05129210438747 0 0 0 717.8236318913589,579.9135653550645 Z "/><path class="wedge" fill="rgb(223,167,159)" d=" M 687.5579948328004,586.4840610753142 L 584.5786863216447,608.8402766255663 A 416.4,416.4 0 0,1 578.6203856771899,574.5313249573577 L 683.107557403278,560.85765318098 A 311.02192659207935,311.02192659207935 0 0 0 687.5579948328004,586.4840610753142 Z "/><path class="wedge" fill="rgb(219,158,149)" d=" M 713.8163557284723,556.8389586177235 L 578.6203856771899,574.5313249573577 A 416.4,416.4 0 0,1 576.5560584908036,555.29203076586 L 712.4279851812252,543.8995032923024 A 280.05129210438747,280.05129210438747 0 0 0 713.8163557284723,556.8389586177235 Z "/><path class="wedge" fill="rgb(219,158,149)" d=" M 713.8163557284723,556.8389586177235 L 578.6203856771899,574.5313249573577 A 416.4,416.4 0 0,1 576.5560584908036,555.29203076586 L 712.4279851812252,543.8995032923024 A 280.05129210438747,280.05129210438747 0 0 0 713.8163557284723,556.8389586177235 Z "/><path class="wedge" fill="rgb(223,167,159)" d=" M 683.107557403278,560.85765318098 L 578.6203856771899,574.5313249573577 A 416.4,416.4 0 0,1 576.5560584908036,555.29203076586 L 681.5656481366441,546.4872344833061 A 311.02192659207935,311.02192659207935 0 0 0 683.107557403278,560.85765318098 Z "/><path class="wedge" fill="rgb(216,153,140)" d=" M 759.6285006317809,444.68355592244257 L 595.7199480134152,391.0893727335492 A 416.4,416.4 0 0,1 724.1728060891985,201.24284440943745 L 834.8838265398549,333.46016567978586 A 243.95189159305863,243.95189159305863 0 0 0 759.6285006317809,444.68355592244257 Z "/><path class="wedge" fill="rgb(219,161,149)" d=" M 725.3167268300078,433.46442512485874 L 595.7199480134152,391.0893727335492 A 416.4,416.4 0 0,1 638.1905872533082,300.13344431473325 L 753.8805053978065,372.291693909096 A 280.05129210438747,280.05129210438747 0 0 0 725.3167268300078,433.46442512485874 Z "/><path class="wedge" fill="rgb(219,161,149)" d=" M 725.3167268300078,433.46442512485874 L 595.7199480134152,391.0893727335492 A 416.4,416.4 0 0,1 638.1905872533082,300.13344431473325 L 753.8805053978065,372.291693909096 A 280.05129210438747,280.05129210438747 0 0 0 725.3167268300078,433.46442512485874 Z "/><path class="wedge" fill="rgb(223,170,159)" d=" M 695.879744775262,423.83923483693326 L 595.7199480134152,391.0893727335492 A 416.4,416.4 0 0,1 638.1905872533082,300.13344431473325 L 727.6023673496825,355.90146324281363 A 311.02192659207935,311.02192659207935 0 0 0 695.879744775262,423.83923483693326 Z "/><path class="wedge" fill="rgb(219,163,149)" d=" M 753.8805053978065,372.291693909096 L 638.1905872533082,300.13344431473325 A 416.4,416.4 0 0,1 667.3288637255887,259.15342090136886 L 773.4775562521702,344.73043428522294 A 280.05129210438747,280.05129210438747 0 0 0 753.8805053978065,372.291693909096 Z "/><path class="wedge" fill="rgb(219,163,149)" d=" M 753.8805053978065,372.291693909096 L 638.1905872533082,300.13344431473325 A 416.4,416.4 0 0,1 667.3288637255887,259.15342090136886 L 773.4775562521702,344.73043428522294 A 280.05129210438747,280.05129210438747 0 0 0 753.8805053978065,372.291693909096 Z "/><path class="wedge" fill="rgb(223,171,159)" d=" M 727.6023673496825,355.90146324281363 L 638.1905872533082,300.13344431473325 A 416.4,416.4 0 0,1 667.3288637255887,259.15342090136886 L 749.3666394101564,325.2922273306784 A 311.02192659207935,311.02192659207935 0 0 0 727.6023673496825,355.90146324281363 Z "/><path class="wedge" fill="rgb(219,164,149)" d=" M 773.4775562521702,344.73043428522294 L 667.3288637255887,259.15342090136886 A 416.4,416.4 0 0,1 701.1942853345768,221.98441911250626 L 796.2538652801647,319.7322907280634 A 280.05129210438747,280.05129210438747 0 0 0 773.4775562521702,344.73043428522294 Z "/><path class="wedge" fill="rgb(223,172,159)" d=" M 749.3666394101564,325.2922273306784 L 667.3288637255887,259.15342090136886 A 416.4,416.4 0 0,1 701.1942853345768,221.98441911250626 L 774.6617611048741,297.529560313684 A 311.02192659207935,311.02192659207935 0 0 0 749.3666394101564,325.2922273306784 Z "/><path class="wedge" fill="rgb(219,164,149)" d=" M 796.2538652801647,319.7322907280634 L 701.1942853345768,221.98441911250626 A 416.4,416.4 0 0,1 712.490737766493,211.40002978338202 L 803.8513342997466,312.61372226563026 A 280.05129210438747,280.05129210438747 0 0 0 796.2538652801647,319.7322907280634 Z "/><path class="wedge" fill="rgb(223,173,159)" d=" M 774.6617611048741,297.529560313684 L 701.1942853345768,221.98441911250626 A 416.4,416.4 0 0,1 712.490737766493,211.40002978338202 L 783.0994277692122,289.62375541227937 A 311.02192659207935,311.02192659207935 0 0 0 774.6617611048741,297.529560313684 Z "/><path class="wedge" fill="rgb(219,165,149)" d=" M 803.8513342997466,312.61372226563026 L 712.490737766493,211.40002978338202 A 416.4,416.4 0 0,1 724.1728060891985,201.24284440943745 L 811.7081506499517,305.782471333553 A 280.05129210438747,280.05129210438747 0 0 0 803.8513342997466,312.61372226563026 Z "/><path class="wedge" fill="rgb(223,173,159)" d=" M 783.0994277692122,289.62375541227937 L 712.490737766493,211.40002978338202 A 416.4,416.4 0 0,1 724.1728060891985,201.24284440943745 L 791.8251227651492,282.03704224283376 A 311.02192659207935,311.02192659207935 0 0 0 783.0994277692122,289.62375541227937 Z "/><path class="wedge" fill="rgb(216,157,140)" d=" M 834.8838265398549,333.46016567978586 L 724.1728060891985,201.24284440943745 A 416.4,416.4 0 0,1 791.1691506547425,155.45683707182286 L 874.1342707919797,306.6359987765564 A 243.95189159305863,243.95189159305863 0 0 0 834.8838265398549,333.46016567978586 Z "/><path class="wedge" fill="rgb(216,157,140)" d=" M 834.8838265398549,333.46016567978586 L 724.1728060891985,201.24284440943745 A 416.4,416.4 0 0,1 791.1691506547425,155.45683707182286 L 874.1342707919797,306.6359987765564 A 243.95189159305863,243.95189159305863 0 0 0 834.8838265398549,333.46016567978586 Z "/><path class="wedge" fill="rgb(219,165,149)" d=" M 811.7081506499517,305.782471333553 L 724.1728060891985,201.24284440943745 A 416.4,416.4 0 0,1 764.6041199996597,171.3478560299663 L 838.9003737577873,285.6764912107948 A 280.05129210438747,280.05129210438747 0 0 0 811.7081506499517,305.782471333553 Z "/><path class="wedge" fill="rgb(219,166,149)" d=" M 838.9003737577873,285.6764912107948 L 764.6041199996597,171.3478560299663 A 416.4,416.4 0 0,1 791.1691506547425,155.45683707182286 L 856.7667790405649,274.98893023076744 A 280.05129210438747,280.05129210438747 0 0 0 838.9003737577873,285.6764912107948 Z "/><path class="wedge" fill="rgb(223,174,159)" d=" M 822.0245107264383,259.70755885851355 L 764.6041199996597,171.3478560299663 A 416.4,416.4 0 0,1 791.1691506547425,155.45683707182286 L 841.8667465917636,247.83806958888573 A 311.02192659207935,311.02192659207935 0 0 0 822.0245107264383,259.70755885851355 Z "/><path class="wedge" fill="rgb(216,158,140)" d=" M 874.1342707919797,306.6359987765564 L 791.1691506547425,155.45683707182286 A 416.4,416.4 0 0,1 851.1051943473481,128.48181350126868 L 909.2483707761664,290.83242522755535 A 243.95189159305863,243.95189159305863 0 0 0 874.1342707919797,306.6359987765564 Z "/><path class="wedge" fill="rgb(216,158,140)" d=" M 874.1342707919797,306.6359987765564 L 791.1691506547425,155.45683707182286 A 416.4,416.4 0 0,1 851.1051943473481,128.48181350126868 L 909.2483707761664,290.83242522755535 A 243.95189159305863,243.95189159305863 0 0 0 874.1342707919797,306.6359987765564 Z "/><path class="wedge" fill="rgb(219,166,149)" d=" M 856.7667790405649,274.98893023076744 L 791.1691506547425,155.45683707182286 A 416.4,416.4 0 0,1 851.1051943473481,128.48181350126868 L 897.0769771187091,256.84678276323615 A 280.05129210438747,280.05129210438747 0 0 0 856.7667790405649,274.98893023076744 Z "/><path class="wedge" fill="rgb(216,159,140)" d=" M 909.2483707761664,290.83242522755535 L 851.1051943473481,128.48181350126868 A 416.4,416.4 0 0,1 869.4685844337018,122.38281421811814 L 920.0067371249351,287.2592686186474 A 243.95189159305863,243.95189159305863 0 0 0 909.2483707761664,290.83242522755535 Z "/><path class="wedge" fill="rgb(213,160,130)" d=" M 1130.5215621632462,374.86273466193853 L 1279.0186161810616,219.29906150656268 A 416.4,416.4 0 0,1 1406.7493932069722,489.5661764206003 L 1192.2821966373804,505.542817279761 A 201.33854027845308,201.33854027845308 0 0 0 1130.5215621632462,374.86273466193853 Z "/><path class="wedge" fill="rgb(213,160,130)" d=" M 1228.3630929878875,462.1184910092009 L 1395.800172776208,420.8489573906609 A 416.4,416.4 0 0,1 1406.7493932069722,489.5661764206003 L 1234.7777976842235,502.377125897213 A 243.95189159305863,243.95189159305863 0 0 0 1228.3630929878875,462.1184910092009 Z "/><path class="wedge" fill="rgb(216,168,140)" d=" M 1159.945509811692,344.0385718177749 L 1279.0186161810616,219.29906150656268 A 416.4,416.4 0 0,1 1356.543162928177,320.16915065474234 L 1205.3640012234437,403.1342707919797 A 243.95189159305863,243.95189159305863 0 0 0 1159.945509811692,344.0385718177749 Z "/><path class="wedge" fill="rgb(219,175,149)" d=" M 1184.8716617809118,317.926243976606 L 1279.0186161810616,219.29906150656268 A 416.4,416.4 0 0,1 1313.2280429671189,256.1516949769723 L 1207.8793327069106,342.711612902729 A 280.05129210438747,280.05129210438747 0 0 0 1184.8716617809118,317.926243976606 Z "/><path class="wedge" fill="rgb(219,175,149)" d=" M 1184.8716617809118,317.926243976606 L 1279.0186161810616,219.29906150656268 A 416.4,416.4 0 0,1 1313.2280429671189,256.1516949769723 L 1207.8793327069106,342.711612902729 A 280.05129210438747,280.05129210438747 0 0 0 1184.8716617809118,317.926243976606 Z "/><path class="wedge" fill="rgb(223,182,159)" d=" M 1206.2564695862688,295.5237843862361 L 1279.0186161810616,219.29906150656268 A 416.4,416.4 0 0,1 1313.2280429671189,256.1516949769723 L 1231.8085392947469,323.0501462065016 A 311.02192659207935,311.02192659207935 0 0 0 1206.2564695862688,295.5237843862361 Z "/><path class="wedge" fill="rgb(219,176,149)" d=" M 1207.8793327069106,342.711612902729 L 1313.2280429671189,256.1516949769723 A 416.4,416.4 0 0,1 1340.6521439700336,293.6041199996597 L 1226.3235087892053,367.9003737577873 A 280.05129210438747,280.05129210438747 0 0 0 1207.8793327069106,342.711612902729 Z "/><path class="wedge" fill="rgb(219,176,149)" d=" M 1207.8793327069106,342.711612902729 L 1313.2280429671189,256.1516949769723 A 416.4,416.4 0 0,1 1340.6521439700336,293.6041199996597 L 1226.3235087892053,367.9003737577873 A 280.05129210438747,280.05129210438747 0 0 0 1207.8793327069106,342.711612902729 Z "/><path class="wedge" fill="rgb(219,176,149)" d=" M 1245.812809960672,341.44795865180436 L 1331.9771336475947,280.782913702177 A 416.4,416.4 0 0,1 1340.6521439700336,293.6041199996597 L 1252.2924411414865,351.0245107264383 A 311.02192659207935,311.02192659207935 0 0 0 1245.812809960672,341.44795865180436 Z "/><path class="wedge" fill="rgb(223,183,159)" d=" M 1231.8085392947469,323.0501462065016 L 1313.2280429671189,256.1516949769723 A 416.4,416.4 0 0,1 1331.9771336475947,280.782913702177 L 1245.812809960672,341.44795865180436 A 311.02192659207935,311.02192659207935 0 0 0 1231.8085392947469,323.0501462065016 Z "/><path class="wedge" fill="rgb(226,190,168)" d=" M 1252.5623573320847,305.99774203827906 L 1313.2280429671189,256.1516949769723 A 416.4,416.4 0 0,1 1322.8315533084697,268.2930179749245 L 1260.3550104848978,315.8496727986312 A 337.88278009756834,337.88278009756834 0 0 0 1252.5623573320847,305.99774203827906 Z "/><path class="wedge" fill="rgb(226,190,168)" d=" M 1260.3550104848978,315.8496727986312 L 1322.8315533084697,268.2930179749245 A 416.4,416.4 0 0,1 1331.9771336475947,280.782913702177 L 1267.7760818359766,325.9844487147043 A 337.88278009756834,337.88278009756834 0 0 0 1260.3550104848978,315.8496727986312 Z "/><path class="wedge" fill="rgb(219,176,149)" d=" M 1226.3235087892053,367.9003737577873 L 1340.6521439700336,293.6041199996597 A 416.4,416.4 0 0,1 1348.8445946314057,306.73891680730026 L 1231.8333704443894,376.73422778638565 A 280.05129210438747,280.05129210438747 0 0 0 1226.3235087892053,367.9003737577873 Z "/><path class="wedge" fill="rgb(219,176,149)" d=" M 1226.3235087892053,367.9003737577873 L 1340.6521439700336,293.6041199996597 A 416.4,416.4 0 0,1 1348.8445946314057,306.73891680730026 L 1231.8333704443894,376.73422778638565 A 280.05129210438747,280.05129210438747 0 0 0 1226.3235087892053,367.9003737577873 Z "/><path class="wedge" fill="rgb(223,183,159)" d=" M 1252.2924411414865,351.0245107264383 L 1340.6521439700336,293.6041199996597 A 416.4,416.4 0 0,1 1348.8445946314057,306.73891680730026 L 1258.4116337164396,360.8352931676195 A 311.02192659207935,311.02192659207935 0 0 0 1252.2924411414865,351.0245107264383 Z "/><path class="wedge" fill="rgb(219,177,149)" d=" M 1231.8333704443894,376.73422778638565 L 1348.8445946314057,306.73891680730026 A 416.4,416.4 0 0,1 1356.543162928177,320.16915065474234 L 1237.0110697692326,385.76677904056487 A 280.05129210438747,280.05129210438747 0 0 0 1231.8333704443894,376.73422778638565 Z "/><path class="wedge" fill="rgb(219,177,149)" d=" M 1231.8333704443894,376.73422778638565 L 1348.8445946314057,306.73891680730026 A 416.4,416.4 0 0,1 1356.543162928177,320.16915065474234 L 1237.0110697692326,385.76677904056487 A 280.05129210438747,280.05129210438747 0 0 0 1231.8333704443894,376.73422778638565 Z "/><path class="wedge" fill="rgb(219,177,149)" d=" M 1231.8333704443894,376.73422778638565 L 1348.8445946314057,306.73891680730026 A 416.4,416.4 0 0,1 1356.543162928177,320.16915065474234 L 1237.0110697692326,385.76677904056487 A 280.05129210438747,280.05129210438747 0 0 0 1231.8333704443894,376.73422778638565 Z "/><path class="wedge" fill="rgb(223,184,159)" d=" M 1258.4116337164396,360.8352931676195 L 1348.8445946314057,306.73891680730026 A 416.4,416.4 0 0,1 1356.543162928177,320.16915065474234 L 1264.1619304111143,370.8667465917636 A 311.02192659207935,311.02192659207935 0 0 0 1258.4116337164396,360.8352931676195 Z "/><path class="wedge" fill="rgb(216,170,140)" d=" M 1205.3640012234437,403.1342707919797 L 1356.543162928177,320.16915065474234 A 416.4,416.4 0 0,1 1395.800172776208,420.8489573906609 L 1228.3630929878875,462.1184910092009 A 243.95189159305863,243.95189159305863 0 0 0 1205.3640012234437,403.1342707919797 Z "/><path class="wedge" fill="rgb(216,170,140)" d=" M 1256.862821586495,430.9941391360828 L 1386.0601467442236,387.41637741188197 A 416.4,416.4 0 0,1 1395.800172776208,420.8489573906609 L 1263.413510528348,453.4793389954496 A 280.05129210438747,280.05129210438747 0 0 0 1256.862821586495,430.9941391360828 Z "/><path class="wedge" fill="rgb(219,177,149)" d=" M 1237.0110697692326,385.76677904056487 L 1356.543162928177,320.16915065474234 A 416.4,416.4 0 0,1 1386.0601467442236,387.41637741188197 L 1256.862821586495,430.9941391360828 A 280.05129210438747,280.05129210438747 0 0 0 1237.0110697692326,385.76677904056487 Z "/><path class="wedge" fill="rgb(219,177,149)" d=" M 1237.0110697692326,385.76677904056487 L 1356.543162928177,320.16915065474234 A 416.4,416.4 0 0,1 1386.0601467442236,387.41637741188197 L 1256.862821586495,430.9941391360828 A 280.05129210438747,280.05129210438747 0 0 0 1237.0110697692326,385.76677904056487 Z "/><path class="wedge" fill="rgb(219,177,149)" d=" M 1237.0110697692326,385.76677904056487 L 1356.543162928177,320.16915065474234 A 416.4,416.4 0 0,1 1386.0601467442236,387.41637741188197 L 1256.862821586495,430.9941391360828 A 280.05129210438747,280.05129210438747 0 0 0 1237.0110697692326,385.76677904056487 Z "/><path class="wedge" fill="rgb(223,184,159)" d=" M 1264.1619304111143,370.8667465917636 L 1356.543162928177,320.16915065474234 A 416.4,416.4 0 0,1 1386.0601467442236,387.41637741188197 L 1286.2090705976034,421.0957620191891 A 311.02192659207935,311.02192659207935 0 0 0 1264.1619304111143,370.8667465917636 Z "/><path class="wedge" fill="rgb(213,166,130)" d=" M 1192.2821966373804,505.542817279761 L 1406.7493932069722,489.5661764206003 A 416.4,416.4 0 0,1 1407.4504180022582,539.8445021581522 L 1192.6211575138977,529.853491419154 A 201.33854027845308,201.33854027845308 0 0 0 1192.2821966373804,505.542817279761 Z "/><path class="wedge" fill="rgb(213,166,130)" d=" M 1192.2821966373804,505.542817279761 L 1406.7493932069722,489.5661764206003 A 416.4,416.4 0 0,1 1407.4504180022582,539.8445021581522 L 1192.6211575138977,529.853491419154 A 201.33854027845308,201.33854027845308 0 0 0 1192.2821966373804,505.542817279761 Z "/><path class="wedge" fill="rgb(213,166,130)" d=" M 1192.2821966373804,505.542817279761 L 1406.7493932069722,489.5661764206003 A 416.4,416.4 0 0,1 1407.4504180022582,539.8445021581522 L 1192.6211575138977,529.853491419154 A 201.33854027845308,201.33854027845308 0 0 0 1192.2821966373804,505.542817279761 Z "/><path class="wedge" fill="rgb(213,166,130)" d=" M 1192.2821966373804,505.542817279761 L 1406.7493932069722,489.5661764206003 A 416.4,416.4 0 0,1 1407.4504180022582,539.8445021581522 L 1192.6211575138977,529.853491419154 A 201.33854027845308,201.33854027845308 0 0 0 1192.2821966373804,505.542817279761 Z "/><path class="wedge" fill="rgb(216,173,140)" d=" M 1234.7777976842235,502.377125897213 L 1406.7493932069722,489.5661764206003 A 416.4,416.4 0 0,1 1407.4504180022582,539.8445021581522 L 1235.1884997131947,531.833160166684 A 243.95189159305863,243.95189159305863 0 0 0 1234.7777976842235,502.377125897213 Z "/><path class="wedge" fill="rgb(213,167,130)" d=" M 1192.6211575138977,529.853491419154 L 1407.4504180022582,539.8445021581522 A 416.4,416.4 0 0,1 1402.0859490643008,589.8407414942129 L 1190.0273190284574,554.0277705914275 A 201.33854027845308,201.33854027845308 0 0 0 1192.6211575138977,529.853491419154 Z "/><path class="wedge" fill="rgb(213,167,130)" d=" M 1192.6211575138977,529.853491419154 L 1407.4504180022582,539.8445021581522 A 416.4,416.4 0 0,1 1402.0859490643008,589.8407414942129 L 1190.0273190284574,554.0277705914275 A 201.33854027845308,201.33854027845308 0 0 0 1192.6211575138977,529.853491419154 Z "/><path class="wedge" fill="rgb(213,167,130)" d=" M 1192.6211575138977,529.853491419154 L 1407.4504180022582,539.8445021581522 A 416.4,416.4 0 0,1 1402.0859490643008,589.8407414942129 L 1190.0273190284574,554.0277705914275 A 201.33854027845308,201.33854027845308 0 0 0 1192.6211575138977,529.853491419154 Z "/><path class="wedge" fill="rgb(213,167,130)" d=" M 1192.6211575138977,529.853491419154 L 1407.4504180022582,539.8445021581522 A 416.4,416.4 0 0,1 1402.0859490643008,589.8407414942129 L 1190.0273190284574,554.0277705914275 A 201.33854027845308,201.33854027845308 0 0 0 1192.6211575138977,529.853491419154 Z "/><path class="wedge" fill="rgb(213,167,130)" d=" M 1192.6211575138977,529.853491419154 L 1407.4504180022582,539.8445021581522 A 416.4,416.4 0 0,1 1402.0859490643008,589.8407414942129 L 1190.0273190284574,554.0277705914275 A 201.33854027845308,201.33854027845308 0 0 0 1192.6211575138977,529.853491419154 Z "/><path class="wedge" fill="rgb(216,174,140)" d=" M 1235.1884997131947,531.833160166684 L 1407.4504180022582,539.8445021581522 A 416.4,416.4 0 0,1 1402.0859490643008,589.8407414942129 L 1232.0456746776356,561.1239314408706 A 243.95189159305863,243.95189159305863 0 0 0 1235.1884997131947,531.833160166684 Z "/><path class="wedge" fill="rgb(210,163,121)" d=" M 1135.5845464276108,563.2040668798941 L 1390.7342124299482,638.8258366775361 A 416.4,416.4 0 0,1 1348.844594631406,734.2610831926995 L 1120.4664869211551,597.6468670689118 A 150.27971868263793,150.27971868263793 0 0 0 1135.5845464276108,563.2040668798941 Z "/><path class="wedge" fill="rgb(210,163,121)" d=" M 1135.5845464276108,563.2040668798941 L 1390.7342124299482,638.8258366775361 A 416.4,416.4 0 0,1 1348.844594631406,734.2610831926995 L 1120.4664869211551,597.6468670689118 A 150.27971868263793,150.27971868263793 0 0 0 1135.5845464276108,563.2040668798941 Z "/><path class="wedge" fill="rgb(210,163,121)" d=" M 1135.5845464276108,563.2040668798941 L 1390.7342124299482,638.8258366775361 A 416.4,416.4 0 0,1 1348.844594631406,734.2610831926995 L 1120.4664869211551,597.6468670689118 A 150.27971868263793,150.27971868263793 0 0 0 1135.5845464276108,563.2040668798941 Z "/><path class="wedge" fill="rgb(210,163,121)" d=" M 1135.5845464276108,563.2040668798941 L 1390.7342124299482,638.8258366775361 A 416.4,416.4 0 0,1 1348.844594631406,734.2610831926995 L 1120.4664869211551,597.6468670689118 A 150.27971868263793,150.27971868263793 0 0 0 1135.5845464276108,563.2040668798941 Z "/><path class="wedge" fill="rgb(210,163,121)" d=" M 1135.5845464276108,563.2040668798941 L 1390.7342124299482,638.8258366775361 A 416.4,416.4 0 0,1 1348.844594631406,734.2610831926995 L 1120.4664869211551,597.6468670689118 A 150.27971868263793,150.27971868263793 0 0 0 1135.5845464276108,563.2040668798941 Z "/><path class="wedge" fill="rgb(210,163,121)" d=" M 1135.5845464276108,563.2040668798941 L 1390.7342124299482,638.8258366775361 A 416.4,416.4 0 0,1 1348.844594631406,734.2610831926995 L 1120.4664869211551,597.6468670689118 A 150.27971868263793,150.27971868263793 0 0 0 1135.5845464276108,563.2040668798941 Z "/><path class="wedge" fill="rgb(213,169,130)" d=" M 1184.5385051869923,577.7131393705133 L 1390.7342124299482,638.8258366775361 A 416.4,416.4 0 0,1 1348.844594631406,734.2610831926995 L 1164.2839554742623,623.8581759326587 A 201.33854027845308,201.33854027845308 0 0 0 1184.5385051869923,577.7131393705133 Z "/><path class="wedge" fill="rgb(207,159,111)" d=" M 1120.4664869211551,597.6468670689118 L 1348.844594631406,734.2610831926995 A 416.4,416.4 0 0,1 1336.3742248553574,753.8467999146685 L 1115.9659017582997,604.7153973262973 A 150.27971868263793,150.27971868263793 0 0 0 1120.4664869211551,597.6468670689118 Z "/><path class="wedge" fill="url(#hiddenPattern)" d=" M 1120.4664869211551,597.6468670689118 L 1348.844594631406,734.2610831926995 A 416.4,416.4 0 0,1 1336.3742248553574,753.8467999146685 L 1115.9659017582997,604.7153973262973 A 150.27971868263793,150.27971868263793 0 0 0 1120.4664869211551,597.6468670689118 Z "/><path class="wedge" fill="rgb(111,207,111)" d=" M 1064.3840821019967,569.8144053614093 L 1336.3742248553574,753.8467999146685 A 416.4,416.4 0 0,1 1191.8308493452578,885.5431629281771 L 1033.8369710431862,597.6464897638799 A 88,88 0 0 0 1064.3840821019967,569.8144053614093 Z "/><path class="wedge" fill="rgb(111,207,111)" d=" M 1069.8422161741591,648.7438731957754 L 1208.573195910159,875.8423526929344 A 416.4,416.4 0 0,1 1191.8308493452578,885.5431629281771 L 1063.799864752784,652.2449179439645 A 150.27971868263793,150.27971868263793 0 0 0 1069.8422161741591,648.7438731957754 Z "/><path class="wedge" fill="rgb(121,210,121)" d=" M 1115.9659017582997,604.7153973262973 L 1336.3742248553574,753.8467999146685 A 416.4,416.4 0 0,1 1287.3044345357043,813.567733653864 L 1098.2565014579789,626.2688198089841 A 150.27971868263793,150.27971868263793 0 0 0 1115.9659017582997,604.7153973262973 Z "/><path class="wedge" fill="rgb(121,210,121)" d=" M 1143.4384829571784,652.6056592206764 L 1305.732854851684,793.7154331873669 A 416.4,416.4 0 0,1 1287.3044345357043,813.567733653864 L 1134.5279372173677,662.2046822684522 A 201.33854027845308,201.33854027845308 0 0 0 1143.4384829571784,652.6056592206764 Z "/><path class="wedge" fill="rgb(130,213,130)" d=" M 1158.2542579539881,633.3282998882507 L 1336.3742248553574,753.8467999146685 A 416.4,416.4 0 0,1 1305.732854851684,793.7154331873669 L 1143.4384829571784,652.6056592206764 A 201.33854027845308,201.33854027845308 0 0 0 1158.2542579539881,633.3282998882507 Z "/><path class="wedge" fill="rgb(130,213,130)" d=" M 1158.2542579539881,633.3282998882507 L 1336.3742248553574,753.8467999146685 A 416.4,416.4 0 0,1 1305.732854851684,793.7154331873669 L 1143.4384829571784,652.6056592206764 A 201.33854027845308,201.33854027845308 0 0 0 1158.2542579539881,633.3282998882507 Z "/><path class="wedge" fill="rgb(130,213,130)" d=" M 1158.2542579539881,633.3282998882507 L 1336.3742248553574,753.8467999146685 A 416.4,416.4 0 0,1 1305.732854851684,793.7154331873669 L 1143.4384829571784,652.6056592206764 A 201.33854027845308,201.33854027845308 0 0 0 1158.2542579539881,633.3282998882507 Z "/><path class="wedge" fill="rgb(130,213,130)" d=" M 1158.2542579539881,633.3282998882507 L 1336.3742248553574,753.8467999146685 A 416.4,416.4 0 0,1 1305.732854851684,793.7154331873669 L 1143.4384829571784,652.6056592206764 A 201.33854027845308,201.33854027845308 0 0 0 1158.2542579539881,633.3282998882507 Z "/><path class="wedge" fill="rgb(140,216,140)" d=" M 1193.5478374523398,657.2084371670758 L 1336.3742248553574,753.8467999146685 A 416.4,416.4 0 0,1 1305.732854851684,793.7154331873669 L 1175.5963000522463,680.5658543191045 A 243.95189159305863,243.95189159305863 0 0 0 1193.5478374523398,657.2084371670758 Z "/><path class="wedge" fill="rgb(121,210,138)" d=" M 1098.2565014579789,626.2688198089841 L 1287.3044345357043,813.567733653864 A 416.4,416.4 0 0,1 1249.8222754565625,847.0862244537327 L 1084.729103950699,638.3657203086739 A 150.27971868263793,150.27971868263793 0 0 0 1098.2565014579789,626.2688198089841 Z "/><path class="wedge" fill="rgb(121,210,150)" d=" M 1084.729103950699,638.3657203086739 L 1249.8222754565625,847.0862244537327 A 416.4,416.4 0 0,1 1208.573195910159,875.8423526929344 L 1069.8422161741591,648.7438731957754 A 150.27971868263793,150.27971868263793 0 0 0 1084.729103950699,638.3657203086739 Z "/><path class="wedge" fill="rgb(130,213,157)" d=" M 1116.4044905423457,678.4116083250859 L 1249.8222754565625,847.0862244537327 A 416.4,416.4 0 0,1 1221.6312804723107,867.5281742858563 L 1102.7735256549142,688.2957397843682 A 201.33854027845308,201.33854027845308 0 0 0 1116.4044905423457,678.4116083250859 Z "/><path class="wedge" fill="rgb(130,213,157)" d=" M 1116.4044905423457,678.4116083250859 L 1249.8222754565625,847.0862244537327 A 416.4,416.4 0 0,1 1221.6312804723107,867.5281742858563 L 1102.7735256549142,688.2957397843682 A 201.33854027845308,201.33854027845308 0 0 0 1116.4044905423457,678.4116083250859 Z "/><path class="wedge" fill="rgb(130,213,157)" d=" M 1116.4044905423457,678.4116083250859 L 1249.8222754565625,847.0862244537327 A 416.4,416.4 0 0,1 1221.6312804723107,867.5281742858563 L 1102.7735256549142,688.2957397843682 A 201.33854027845308,201.33854027845308 0 0 0 1116.4044905423457,678.4116083250859 Z "/><path class="wedge" fill="rgb(130,213,157)" d=" M 1116.4044905423457,678.4116083250859 L 1249.8222754565625,847.0862244537327 A 416.4,416.4 0 0,1 1221.6312804723107,867.5281742858563 L 1102.7735256549142,688.2957397843682 A 201.33854027845308,201.33854027845308 0 0 0 1116.4044905423457,678.4116083250859 Z "/><path class="wedge" fill="rgb(130,213,157)" d=" M 1116.4044905423457,678.4116083250859 L 1249.8222754565625,847.0862244537327 A 416.4,416.4 0 0,1 1221.6312804723107,867.5281742858563 L 1102.7735256549142,688.2957397843682 A 201.33854027845308,201.33854027845308 0 0 0 1116.4044905423457,678.4116083250859 Z "/><path class="wedge" fill="rgb(140,216,164)" d=" M 1142.8405565279816,711.8336388658101 L 1249.8222754565625,847.0862244537327 A 416.4,416.4 0 0,1 1221.6312804723107,867.5281742858563 L 1126.3245945868225,723.8097491669555 A 243.95189159305863,243.95189159305863 0 0 0 1142.8405565279816,711.8336388658101 Z "/><path class="wedge" fill="rgb(121,210,157)" d=" M 1102.7735256549142,688.2957397843682 L 1221.6312804723107,867.5281742858563 A 416.4,416.4 0 0,1 1208.573195910159,875.8423526929344 L 1096.4596551347984,692.3158275463657 A 201.33854027845308,201.33854027845308 0 0 0 1102.7735256549142,688.2957397843682 Z "/><path class="wedge" fill="url(#hiddenPattern)" d=" M 1102.7735256549142,688.2957397843682 L 1221.6312804723107,867.5281742858563 A 416.4,416.4 0 0,1 1208.573195910159,875.8423526929344 L 1096.4596551347984,692.3158275463657 A 201.33854027845308,201.33854027845308 0 0 0 1102.7735256549142,688.2957397843682 Z "/><path class="wedge" fill="rgb(111,111,207)" d=" M 1033.8369710431862,597.6464897638799 L 1191.8308493452578,885.5431629281771 A 416.4,416.4 0 0,1 1098.6490519200013,922.8779823407897 L 1014.144372163689,605.536653328505 A 88,88 0 0 0 1033.8369710431862,597.6464897638799 Z "/><path class="wedge" fill="rgb(111,111,207)" d=" M 1033.8369710431862,597.6464897638799 L 1191.8308493452578,885.5431629281771 A 416.4,416.4 0 0,1 1098.6490519200013,922.8779823407897 L 1014.144372163689,605.536653328505 A 88,88 0 0 0 1033.8369710431862,597.6464897638799 Z "/><path class="wedge" fill="rgb(111,111,207)" d=" M 1033.8369710431862,597.6464897638799 L 1191.8308493452578,885.5431629281771 A 416.4,416.4 0 0,1 1098.6490519200013,922.8779823407897 L 1014.144372163689,605.536653328505 A 88,88 0 0 0 1033.8369710431862,597.6464897638799 Z "/><path class="wedge" fill="rgb(111,111,207)" d=" M 1033.8369710431862,597.6464897638799 L 1191.8308493452578,885.5431629281771 A 416.4,416.4 0 0,1 1098.6490519200013,922.8779823407897 L 1014.144372163689,605.536653328505 A 88,88 0 0 0 1033.8369710431862,597.6464897638799 Z "/><path class="wedge" fill="rgb(111,111,207)" d=" M 1033.8369710431862,597.6464897638799 L 1191.8308493452578,885.5431629281771 A 416.4,416.4 0 0,1 1098.6490519200013,922.8779823407897 L 1014.144372163689,605.536653328505 A 88,88 0 0 0 1033.8369710431862,597.6464897638799 Z "/><path class="wedge" fill="rgb(121,121,210)" d=" M 1063.799864752784,652.2449179439645 L 1191.8308493452578,885.5431629281771 A 416.4,416.4 0 0,1 1146.369120891372,907.0288028004298 L 1047.3926222867024,659.999134840503 A 150.27971868263793,150.27971868263793 0 0 0 1063.799864752784,652.2449179439645 Z "/><path class="wedge" fill="rgb(130,130,213)" d=" M 1088.3643630641616,697.0063822348432 L 1191.8308493452578,885.5431629281771 A 416.4,416.4 0 0,1 1146.369120891372,907.0288028004298 L 1066.3826194391838,707.3951607382724 A 201.33854027845308,201.33854027845308 0 0 0 1088.3643630641616,697.0063822348432 Z "/><path class="wedge" fill="rgb(142,121,210)" d=" M 1047.3926222867024,659.999134840503 L 1146.369120891372,907.0288028004298 A 416.4,416.4 0 0,1 1098.6490519200013,922.8779823407897 L 1030.1703395284562,665.719140226372 A 150.27971868263793,150.27971868263793 0 0 0 1047.3926222867024,659.999134840503 Z "/><path class="wedge" fill="rgb(150,130,213)" d=" M 1066.3826194391838,707.3951607382724 L 1146.369120891372,907.0288028004298 A 416.4,416.4 0 0,1 1098.6490519200013,922.8779823407897 L 1043.308918601809,715.0585869468871 A 201.33854027845308,201.33854027845308 0 0 0 1066.3826194391838,707.3951607382724 Z "/><circle cx="991.5" cy="520.5" r="88"/><circle cx="991.5" cy="520.5" r="416.4"/><text x="991.5" y="520.5" text-anchor="middle" style="font-color:black;font-weight:bold" transform="rotate(360,991.5,520.5)">Bacteria</text><text x="1243.7" y="520.5" text-anchor="start" style="font-color:black;font-weight:normal" transform="rotate(442.5443786982249,991.5,520.5)">4%&#160;&#160;&#160;[other Bacteria]</text><path class="line" d=" M 1064.3840821019967,569.8144053614093 A 88,88 0 1 0 991.5,608.5"/><line x1="1336.3742248553574" y1="753.8467999146685" x2="1064.3840821019967" y2="569.8144053614093"/><text x="991.5" y="401.360140658681" text-anchor="middle" style="font-color:black;font-weight:normal" transform="rotate(332.0414201183432,991.5,520.5)">Terrabacteria group</text><path class="line" d=" M 1135.5845464276108,563.2040668798941 A 150.27971868263793,150.27971868263793 0 1 0 991.5,670.779718682638"/><line x1="1390.7342124299482" y1="638.8258366775361" x2="1135.5845464276108" y2="563.2040668798941"/><text x="991.5" y="354.90263483861753" text-anchor="middle" style="font-color:black;font-weight:normal" transform="rotate(323.2544378698225,991.5,520.5)">Firmicutes</text><line x1="1279.0186161810616" y1="219.29906150656268" x2="1130.5215621632462" y2="374.86273466193853"/><path class="line" d=" M 1130.5215621632462,374.86273466193853 A 201.33854027845308,201.33854027845308 0 1 0 991.5,721.8385402784531"/><text x="991.5" y="306.37745432716525" text-anchor="middle" style="font-color:black;font-weight:normal" transform="rotate(291.8343195266272,991.5,520.5)">Eubacteriales</text><path class="line" d=" M 759.6285006317809,444.68355592244257 A 243.95189159305863,243.95189159305863 0 0 0 991.5,764.4518915930587"/><line x1="595.7199480134152" y1="391.0893727335492" x2="759.6285006317809" y2="444.68355592244257"/><text x="991.5" y="775.2817117464573" text-anchor="middle" style="font-color:black;font-weight:normal" transform="rotate(54.053254437869825,991.5,520.5)">Lachnospiraceae</text><path class="line" d=" M 861.3536751982931,768.4731040857971 A 280.05129210438747,280.05129210438747 0 0 0 991.5,800.5512921043875"/><line x1="797.9892711609748" y1="889.2038890819965" x2="861.3536751982931" y2="768.4731040857971"/><text x="643.2743539478063" y="520.5" text-anchor="end" style="font-color:black;font-weight:normal" transform="rotate(-76.15384615384615,991.5,520.5)">Lachnoclostridium&#160;&#160;&#160;8%</text><path class="line" d=" M 954.010449481976,829.2542265670306 A 311.02192659207935,311.02192659207935 0 0 0 991.5,831.5219265920794"/><line x1="941.3085263416835" y1="933.8639751744297" x2="954.010449481976" y2="829.2542265670306"/><text x="627.7890367039604" y="520.5" text-anchor="end" style="font-color:black;font-weight:normal" transform="rotate(-86.53846153846153,991.5,520.5)">Lachnoclostridium phocaeense&#160;&#160;&#160;2%</text><line x1="667.3288637255889" y1="781.8465790986313" x2="773.4775562521703" y2="696.2695657147772"/><path class="line" d=" M 773.4775562521703,696.2695657147772 A 280.05129210438747,280.05129210438747 0 0 0 861.3536751982931,768.4731040857971"/><text x="991.5" y="809.842482450695" text-anchor="middle" style="font-color:black;font-weight:normal" transform="rotate(39.40828402366865,991.5,520.5)">Roseburia hominis</text><path class="line" d=" M 749.3666394101565,715.7077726693218 A 311.02192659207935,311.02192659207935 0 0 0 846.9609036989648,795.896239011227"/><text x="627.7890367039604" y="520.5" text-anchor="end" style="font-color:black;font-weight:normal" transform="rotate(-50.59171597633135,991.5,520.5)">Roseburia hominis A2-183&#160;&#160;&#160;7%</text><path class="line" d=" M 739.9947666226742,643.6821569593335 A 280.05129210438747,280.05129210438747 0 0 0 773.4775562521703,696.2695657147772"/><line x1="617.5442921317351" y1="703.6559132344487" x2="739.9947666226742" y2="643.6821569593335"/><text x="991.5" y="822.2307362457718" text-anchor="middle" style="font-color:black;font-weight:normal" transform="rotate(57.51479289940827,991.5,520.5)">Anaerobutyricum</text><path class="line" d=" M 712.1810165194703,657.3047670530979 A 311.02192659207935,311.02192659207935 0 0 0 749.3666394101565,715.7077726693218"/><text x="627.7890367039604" y="520.5" text-anchor="end" style="font-color:black;font-weight:normal" transform="rotate(-32.48520710059173,991.5,520.5)">Anaerobutyricum hallii&#160;&#160;&#160;4%</text><path class="line" d=" M 726.9805546776583,612.4684144459264 A 280.05129210438747,280.05129210438747 0 0 0 739.9947666226742,643.6821569593335"/><line x1="598.1938445291414" y1="657.2451208224003" x2="726.9805546776583" y2="612.4684144459264"/><text x="991.5" y="809.842482450695" text-anchor="middle" style="font-color:black;font-weight:normal" transform="rotate(67.36686390532545,991.5,520.5)">Anaerostipes</text><path class="line" d=" M 697.7275739311472,622.6391232714927 A 311.02192659207935,311.02192659207935 0 0 0 712.1810165194703,657.3047670530979"/><text x="627.7890367039604" y="520.5" text-anchor="end" style="font-color:black;font-weight:normal" transform="rotate(-22.633136094674555,991.5,520.5)">Anaerostipes hadrus&#160;&#160;&#160;2%</text><path class="line" d=" M 717.8236318913589,579.9135653550645 A 280.05129210438747,280.05129210438747 0 0 0 726.9805546776583,612.4684144459264"/><line x1="584.5786863216447" y1="608.8402766255663" x2="717.8236318913589" y2="579.9135653550645"/><text x="643.2743539478063" y="520.5" text-anchor="end" style="font-color:black;font-weight:normal" transform="rotate(-15.710059171597637,991.5,520.5)">Blautia&#160;&#160;&#160;2%</text><line x1="578.6203856771899" y1="574.5313249573577" x2="713.8163557284723" y2="556.8389586177235"/><path class="line" d=" M 713.8163557284723,556.8389586177235 A 280.05129210438747,280.05129210438747 0 0 0 717.8236318913589,579.9135653550645"/><text x="991.5" y="822.2307362457718" text-anchor="middle" style="font-color:black;font-weight:normal" transform="rotate(80.14792899408283,991.5,520.5)">Cellulosilyticum lentocellum</text><path class="line" d=" M 683.107557403278,560.85765318098 A 311.02192659207935,311.02192659207935 0 0 0 687.5579948328004,586.4840610753142"/><text x="627.7890367039604" y="520.5" text-anchor="end" style="font-color:black;font-weight:normal" transform="rotate(-9.852071005917175,991.5,520.5)">Cellulosilyticum lentocellum DSM 5427&#160;&#160;&#160;1%</text><line x1="576.5560584908036" y1="555.29203076586" x2="712.4279851812252" y2="543.8995032923024"/><path class="line" d=" M 712.4279851812252,543.8995032923024 A 280.05129210438747,280.05129210438747 0 0 0 713.8163557284723,556.8389586177235"/><text x="991.5" y="809.842482450695" text-anchor="middle" style="font-color:black;font-weight:normal" transform="rotate(83.8757396449704,991.5,520.5)">[Eubact...rectale</text><path class="line" d=" M 681.5656481366441,546.4872344833061 A 311.02192659207935,311.02192659207935 0 0 0 683.107557403278,560.85765318098"/><text x="627.7890367039604" y="520.5" text-anchor="end" style="font-color:black;font-weight:normal" transform="rotate(-6.124260355029595,991.5,520.5)">[Eubacterium] rectale ATCC 33656&#160;&#160;&#160;0.7%</text><path class="line" d=" M 834.8838265398549,333.46016567978586 A 243.95189159305863,243.95189159305863 0 0 0 759.6285006317809,444.68355592244257"/><line x1="724.1728060891985" y1="201.24284440943745" x2="834.8838265398549" y2="333.46016567978586"/><text x="991.5" y="251.2785280490112" text-anchor="middle" style="font-color:black;font-weight:normal" transform="rotate(304.0828402366864,991.5,520.5)">Oscillospiraceae</text><line x1="638.1905872533082" y1="300.13344431473325" x2="753.8805053978065" y2="372.291693909096"/><path class="line" d=" M 753.8805053978065,372.291693909096 A 280.05129210438747,280.05129210438747 0 0 0 725.3167268300078,433.46442512485874"/><text x="991.5" y="218.76926375422818" text-anchor="middle" style="font-color:black;font-weight:normal" transform="rotate(295.0295857988166,991.5,520.5)">unclassi...libacter</text><path class="line" d=" M 727.6023673496825,355.90146324281363 A 311.02192659207935,311.02192659207935 0 0 0 695.879744775262,423.83923483693326"/><text x="627.7890367039604" y="520.5" text-anchor="end" style="font-color:black;font-weight:normal" transform="rotate(25.02958579881657,991.5,520.5)">Oscillibacter sp. PEA192&#160;&#160;&#160;4%</text><line x1="667.3288637255887" y1="259.15342090136886" x2="773.4775562521702" y2="344.73043428522294"/><path class="line" d=" M 773.4775562521702,344.73043428522294 A 280.05129210438747,280.05129210438747 0 0 0 753.8805053978065,372.291693909096"/><text x="991.5" y="231.157517549305" text-anchor="middle" style="font-color:black;font-weight:normal" transform="rotate(305.41420118343194,991.5,520.5)">Rumi...nsis</text><path class="line" d=" M 749.3666394101564,325.2922273306784 A 311.02192659207935,311.02192659207935 0 0 0 727.6023673496825,355.90146324281363"/><text x="627.7890367039604" y="520.5" text-anchor="end" style="font-color:black;font-weight:normal" transform="rotate(35.414201183431935,991.5,520.5)">Ruminococcus champanellensis 18P13 = JCM 17042&#160;&#160;&#160;2%</text><path class="line" d=" M 796.2538652801647,319.7322907280634 A 280.05129210438747,280.05129210438747 0 0 0 773.4775562521702,344.73043428522294"/><line x1="701.1942853345768" y1="221.98441911250626" x2="796.2538652801647" y2="319.7322907280634"/><text x="991.5" y="218.76926375422818" text-anchor="middle" style="font-color:black;font-weight:normal" transform="rotate(312.3372781065089,991.5,520.5)">Fa...um</text><path class="line" d=" M 774.6617611048741,297.529560313684 A 311.02192659207935,311.02192659207935 0 0 0 749.3666394101564,325.2922273306784"/><text x="627.7890367039604" y="520.5" text-anchor="end" style="font-color:black;font-weight:normal" transform="rotate(42.337278106508876,991.5,520.5)">Faecalibacterium prausnitzii&#160;&#160;&#160;2%</text><path class="line" d=" M 803.8513342997466,312.61372226563026 A 280.05129210438747,280.05129210438747 0 0 0 796.2538652801647,319.7322907280634"/><line x1="712.490737766493" y1="211.40002978338202" x2="803.8513342997466" y2="312.61372226563026"/><text x="991.5" y="231.157517549305" text-anchor="middle" style="font-color:black;font-weight:normal" transform="rotate(316.8639053254438,991.5,520.5)">uncl...ceae</text><path class="line" d=" M 783.0994277692122,289.62375541227937 A 311.02192659207935,311.02192659207935 0 0 0 774.6617611048741,297.529560313684"/><text x="627.7890367039604" y="520.5" text-anchor="end" style="font-color:black;font-weight:normal" transform="rotate(46.8639053254438,991.5,520.5)">Ruminococcaceae bacterium CPB6&#160;&#160;&#160;0.6%</text><path class="line" d=" M 811.7081506499517,305.782471333553 A 280.05129210438747,280.05129210438747 0 0 0 803.8513342997466,312.61372226563026"/><text x="991.5" y="218.76926375422818" text-anchor="middle" style="font-color:black;font-weight:normal" transform="rotate(318.9940828402367,991.5,520.5)">Fl...or</text><path class="line" d=" M 791.8251227651492,282.03704224283376 A 311.02192659207935,311.02192659207935 0 0 0 783.0994277692122,289.62375541227937"/><text x="627.7890367039604" y="520.5" text-anchor="end" style="font-color:black;font-weight:normal" transform="rotate(48.994082840236686,991.5,520.5)">Flavonifractor plautii&#160;&#160;&#160;0.6%</text><line x1="791.1691506547425" y1="155.45683707182286" x2="874.1342707919797" y2="306.6359987765564"/><path class="line" d=" M 874.1342707919797,306.6359987765564 A 243.95189159305863,243.95189159305863 0 0 0 834.8838265398549,333.46016567978586"/><text x="991.5" y="265.7182882535427" text-anchor="middle" style="font-color:black;font-weight:normal" transform="rotate(325.6508875739645,991.5,520.5)">Clostridial...ertae Sedis</text><path class="line" d=" M 838.9003737577873,285.6764912107948 A 280.05129210438747,280.05129210438747 0 0 0 811.7081506499517,305.782471333553"/><line x1="764.6041199996597" y1="171.3478560299663" x2="838.9003737577873" y2="285.6764912107948"/><text x="643.2743539478063" y="520.5" text-anchor="end" style="font-color:black;font-weight:normal" transform="rotate(53.52071005917159,991.5,520.5)">Mogibacterium&#160;&#160;&#160;2%</text><path class="line" d=" M 856.7667790405649,274.98893023076744 A 280.05129210438747,280.05129210438747 0 0 0 838.9003737577873,285.6764912107948"/><text x="991.5" y="231.157517549305" text-anchor="middle" style="font-color:black;font-weight:normal" transform="rotate(329.1124260355029,991.5,520.5)">[Euba...sulci</text><path class="line" d=" M 841.8667465917636,247.83806958888573 A 311.02192659207935,311.02192659207935 0 0 0 822.0245107264383,259.70755885851355"/><text x="627.7890367039604" y="520.5" text-anchor="end" style="font-color:black;font-weight:normal" transform="rotate(59.11242603550294,991.5,520.5)">Eubacterium sulci ATCC 35585&#160;&#160;&#160;1%</text><line x1="851.1051943473481" y1="128.48181350126868" x2="909.2483707761664" y2="290.83242522755535"/><path class="line" d=" M 909.2483707761664,290.83242522755535 A 243.95189159305863,243.95189159305863 0 0 0 874.1342707919797,306.6359987765564"/><text x="991.5" y="251.2785280490112" text-anchor="middle" style="font-color:black;font-weight:normal" transform="rotate(335.7692307692307,991.5,520.5)">Clostridium</text><path class="line" d=" M 897.0769771187091,256.84678276323615 A 280.05129210438747,280.05129210438747 0 0 0 856.7667790405649,274.98893023076744"/><text x="643.2743539478063" y="520.5" text-anchor="end" style="font-color:black;font-weight:normal" transform="rotate(65.76923076923073,991.5,520.5)">Clostridium perfringens&#160;&#160;&#160;3%</text><path class="line" d=" M 920.0067371249351,287.2592686186474 A 243.95189159305863,243.95189159305863 0 0 0 909.2483707761664,290.83242522755535"/><line x1="869.4685844337018" y1="122.38281421811814" x2="920.0067371249351" y2="287.2592686186474"/><text x="661.3240542034707" y="520.5" text-anchor="end" style="font-color:black;font-weight:normal" transform="rotate(71.62721893491124,991.5,520.5)">Eubacteriaceae&#160;&#160;&#160;0.7%</text><path class="line" d=" M 1192.2821966373804,505.542817279761 A 201.33854027845308,201.33854027845308 0 0 0 1130.5215621632462,374.86273466193853"/><line x1="1406.7493932069722" y1="489.5661764206003" x2="1192.2821966373804" y2="505.542817279761"/><text x="991.5" y="289.332113801323" text-anchor="middle" style="font-color:black;font-weight:normal" transform="rotate(424.7041420118343,991.5,520.5)">Bacilli</text><path class="line" d=" M 1205.3640012234437,403.1342707919797 A 243.95189159305863,243.95189159305863 0 0 0 1159.945509811692,344.0385718177749"/><line x1="1356.543162928177" y1="320.16915065474234" x2="1205.3640012234437" y2="403.1342707919797"/><text x="991.5" y="265.7182882535427" text-anchor="middle" style="font-color:black;font-weight:normal" transform="rotate(412.4556213017752,991.5,520.5)">Bacillales</text><line x1="1313.2280429671189" y1="256.1516949769723" x2="1207.8793327069106" y2="342.711612902729"/><path class="line" d=" M 1207.8793327069106,342.711612902729 A 280.05129210438747,280.05129210438747 0 0 0 1184.8716617809118,317.926243976606"/><text x="991.5" y="218.76926375422818" text-anchor="middle" style="font-color:black;font-weight:normal" transform="rotate(407.1301775147929,991.5,520.5)">Listeria</text><path class="line" d=" M 1231.8085392947469,323.0501462065016 A 311.02192659207935,311.02192659207935 0 0 0 1206.2564695862688,295.5237843862361"/><text x="1355.2109632960396" y="520.5" text-anchor="start" style="font-color:black;font-weight:normal" transform="rotate(317.1301775147929,991.5,520.5)">2%&#160;&#160;&#160;Listeria monocytogenes</text><line x1="1340.6521439700336" y1="293.6041199996597" x2="1226.3235087892053" y2="367.9003737577873"/><path class="line" d=" M 1226.3235087892053,367.9003737577873 A 280.05129210438747,280.05129210438747 0 0 0 1207.8793327069106,342.711612902729"/><text x="991.5" y="231.157517549305" text-anchor="middle" style="font-color:black;font-weight:normal" transform="rotate(413.7869822485207,991.5,520.5)">B...s</text><path class="line" d=" M 1245.812809960672,341.44795865180436 A 311.02192659207935,311.02192659207935 0 0 0 1231.8085392947469,323.0501462065016"/><line x1="1331.9771336475947" y1="280.782913702177" x2="1245.812809960672" y2="341.44795865180436"/><text x="991.5" y="201.41981735627394" text-anchor="middle" style="font-color:black;font-weight:normal" transform="rotate(412.72189349112426,991.5,520.5)">Bacillus cereus group</text><path class="line" d=" M 1260.3550104848978,315.8496727986312 A 337.88278009756834,337.88278009756834 0 0 0 1252.5623573320847,305.99774203827906"/><line x1="1322.8315533084697" y1="268.2930179749245" x2="1260.3550104848978" y2="315.8496727986312"/><text x="1368.6413900487842" y="520.5" text-anchor="start" style="font-color:black;font-weight:normal" transform="rotate(321.6568047337278,991.5,520.5)">0.6%&#160;&#160;&#160;Bacillus thuringiensis</text><path class="line" d=" M 1267.7760818359766,325.9844487147043 A 337.88278009756834,337.88278009756834 0 0 0 1260.3550104848978,315.8496727986312"/><text x="1368.6413900487842" y="520.5" text-anchor="start" style="font-color:black;font-weight:normal" transform="rotate(323.7869822485207,991.5,520.5)">0.6%&#160;&#160;&#160;Bacillus cereus</text><line x1="1348.8445946314057" y1="306.73891680730026" x2="1231.8333704443894" y2="376.73422778638565"/><path class="line" d=" M 1231.8333704443894,376.73422778638565 A 280.05129210438747,280.05129210438747 0 0 0 1226.3235087892053,367.9003737577873"/><text x="991.5" y="218.76926375422818" text-anchor="middle" style="font-color:black;font-weight:normal" transform="rotate(418.0473372781065,991.5,520.5)">Sa...us</text><path class="line" d=" M 1258.4116337164396,360.8352931676195 A 311.02192659207935,311.02192659207935 0 0 0 1252.2924411414865,351.0245107264383"/><text x="1355.2109632960396" y="520.5" text-anchor="start" style="font-color:black;font-weight:normal" transform="rotate(328.0473372781065,991.5,520.5)">0.6%&#160;&#160;&#160;Salinicoccus halodurans</text><path class="line" d=" M 1237.0110697692326,385.76677904056487 A 280.05129210438747,280.05129210438747 0 0 0 1231.8333704443894,376.73422778638565"/><text x="991.5" y="231.157517549305" text-anchor="middle" style="font-color:black;font-weight:normal" transform="rotate(420.1775147928994,991.5,520.5)">u...s</text><path class="line" d=" M 1264.1619304111143,370.8667465917636 A 311.02192659207935,311.02192659207935 0 0 0 1258.4116337164396,360.8352931676195"/><text x="1355.2109632960396" y="520.5" text-anchor="start" style="font-color:black;font-weight:normal" transform="rotate(330.1775147928994,991.5,520.5)">0.6%&#160;&#160;&#160;Planococcus sp. MB-3u-03</text><path class="line" d=" M 1228.3630929878875,462.1184910092009 A 243.95189159305863,243.95189159305863 0 0 0 1205.3640012234437,403.1342707919797"/><line x1="1395.800172776208" y1="420.8489573906609" x2="1228.3630929878875" y2="462.1184910092009"/><text x="991.5" y="251.2785280490112" text-anchor="middle" style="font-color:black;font-weight:normal" transform="rotate(428.698224852071,991.5,520.5)">Lactobacillales</text><line x1="1386.0601467442236" y1="387.41637741188197" x2="1256.862821586495" y2="430.9941391360828"/><path class="line" d=" M 1256.862821586495,430.9941391360828 A 280.05129210438747,280.05129210438747 0 0 0 1237.0110697692326,385.76677904056487"/><text x="991.5" y="218.76926375422818" text-anchor="middle" style="font-color:black;font-weight:normal" transform="rotate(426.301775147929,991.5,520.5)">Lac...kii</text><path class="line" d=" M 1286.2090705976034,421.0957620191891 A 311.02192659207935,311.02192659207935 0 0 0 1264.1619304111143,370.8667465917636"/><text x="1355.2109632960396" y="520.5" text-anchor="start" style="font-color:black;font-weight:normal" transform="rotate(336.30177514792894,991.5,520.5)">3%&#160;&#160;&#160;Lactobacillus delbrueckii subsp. lactis</text><line x1="1407.4504180022582" y1="539.8445021581522" x2="1192.6211575138977" y2="529.853491419154"/><path class="line" d=" M 1192.6211575138977,529.853491419154 A 201.33854027845308,201.33854027845308 0 0 0 1192.2821966373804,505.542817279761"/><text x="991.5" y="306.37745432716525" text-anchor="middle" style="font-color:black;font-weight:normal" transform="rotate(449.2011834319527,991.5,520.5)">Erysipelothrix</text><path class="line" d=" M 1235.1884997131947,531.833160166684 A 243.95189159305863,243.95189159305863 0 0 0 1234.7777976842235,502.377125897213"/><text x="1321.6759457965293" y="520.5" text-anchor="start" style="font-color:black;font-weight:normal" transform="rotate(359.2011834319527,991.5,520.5)">2%&#160;&#160;&#160;Erysipelothrix rhusiopathiae</text><line x1="1402.0859490643008" y1="589.8407414942129" x2="1190.0273190284574" y2="554.0277705914275"/><path class="line" d=" M 1190.0273190284574,554.0277705914275 A 201.33854027845308,201.33854027845308 0 0 0 1192.6211575138977,529.853491419154"/><text x="991.5" y="751.667886198677" text-anchor="middle" style="font-color:black;font-weight:normal" transform="rotate(276.12426035502955,991.5,520.5)">Acidaminococcus fermentans</text><path class="line" d=" M 1232.0456746776356,561.1239314408706 A 243.95189159305863,243.95189159305863 0 0 0 1235.1884997131947,531.833160166684"/><text x="1321.6759457965293" y="520.5" text-anchor="start" style="font-color:black;font-weight:normal" transform="rotate(366.1242603550296,991.5,520.5)">2%&#160;&#160;&#160;Acidaminococcus fermentans DSM 20731</text><line x1="1348.844594631406" y1="734.2610831926995" x2="1120.4664869211551" y2="597.6468670689118"/><path class="line" d=" M 1120.4664869211551,597.6468670689118 A 150.27971868263793,150.27971868263793 0 0 0 1135.5845464276108,563.2040668798941"/><text x="991.5" y="706.5208937997086" text-anchor="middle" style="font-color:black;font-weight:normal" transform="rotate(293.698224852071,991.5,520.5)">Fimbriimo...sengisoli</text><path class="line" d=" M 1164.2839554742623,623.8581759326587 A 201.33854027845308,201.33854027845308 0 0 0 1184.5385051869923,577.7131393705133"/><text x="1300.3692701392265" y="520.5" text-anchor="start" style="font-color:black;font-weight:normal" transform="rotate(383.698224852071,991.5,520.5)">4%&#160;&#160;&#160;Fimbriimonas ginsengisoli Gsoil 348</text><line x1="1399.65" y1="520.5" x2="1416.15" y2="520.5" class="tick" transform="rotate(392.4852071005917,991.5,520.5)"/><text x="1418.9" y="520.5" text-anchor="start" style="font-color:black;font-weight:normal" transform="rotate(392.4852071005917,991.5,520.5)">2 more</text><path class="line" d=" M 1115.9659017582997,604.7153973262973 A 150.27971868263793,150.27971868263793 0 0 0 1120.4664869211551,597.6468670689118"/><path class="line" d=" M 1033.8369710431862,597.6464897638799 A 88,88 0 0 0 1064.3840821019967,569.8144053614093"/><line x1="1191.8308493452578" y1="885.5431629281771" x2="1033.8369710431862" y2="597.6464897638799"/><text x="991.5" y="657.4340646792155" text-anchor="middle" style="font-color:black;font-weight:normal" transform="rotate(317.6627218934911,991.5,520.5)">Proteobacteria</text><line x1="1117.6540646792155" y1="520.5" x2="1125.3540646792155" y2="520.5" class="tick" transform="rotate(407.6627218934911,991.5,520.5)"/><path class="line" d=" M 1098.2565014579789,626.2688198089841 A 150.27971868263793,150.27971868263793 0 0 0 1115.9659017582997,604.7153973262973"/><line x1="1287.3044345357043" y1="813.567733653864" x2="1098.2565014579789" y2="626.2688198089841"/><text x="991.5" y="686.0973651613824" text-anchor="middle" style="font-color:black;font-weight:normal" transform="rotate(309.40828402366867,991.5,520.5)">delta/...isions</text><line x1="1305.732854851684" y1="793.7154331873669" x2="1143.4384829571784" y2="652.6056592206764"/><path class="line" d=" M 1143.4384829571784,652.6056592206764 A 201.33854027845308,201.33854027845308 0 0 0 1158.2542579539881,633.3282998882507"/><text x="991.5" y="734.6225456728348" text-anchor="middle" style="font-color:black;font-weight:normal" transform="rotate(307.5443786982249,991.5,520.5)">Desulfovibrio</text><path class="line" d=" M 1175.5963000522463,680.5658543191045 A 243.95189159305863,243.95189159305863 0 0 0 1193.5478374523398,657.2084371670758"/><text x="1321.6759457965293" y="520.5" text-anchor="start" style="font-color:black;font-weight:normal" transform="rotate(397.5443786982248,991.5,520.5)">2%&#160;&#160;&#160;Desulfovibrio fairfieldensis</text><path class="line" d=" M 1084.729103950699,638.3657203086739 A 150.27971868263793,150.27971868263793 0 0 0 1098.2565014579789,626.2688198089841"/><line x1="1249.8222754565625" y1="847.0862244537327" x2="1084.729103950699" y2="638.3657203086739"/><text x="1274.839859341319" y="520.5" text-anchor="start" style="font-color:black;font-weight:normal" transform="rotate(408.1952662721893,991.5,520.5)">2%&#160;&#160;&#160;Betaproteobacteria</text><path class="line" d=" M 1069.8422161741591,648.7438731957754 A 150.27971868263793,150.27971868263793 0 0 0 1084.729103950699,638.3657203086739"/><line x1="1208.573195910159" y1="875.8423526929344" x2="1069.8422161741591" y2="648.7438731957754"/><text x="991.5" y="706.5208937997086" text-anchor="middle" style="font-color:black;font-weight:normal" transform="rotate(325.1183431952663,991.5,520.5)">Gam...ria</text><line x1="1221.6312804723107" y1="867.5281742858563" x2="1102.7735256549142" y2="688.2957397843682"/><path class="line" d=" M 1102.7735256549142,688.2957397843682 A 201.33854027845308,201.33854027845308 0 0 0 1116.4044905423457,678.4116083250859"/><text x="991.5" y="751.667886198677" text-anchor="middle" style="font-color:black;font-weight:normal" transform="rotate(324.0532544378698,991.5,520.5)">Vibrio cholerae O1</text><path class="line" d=" M 1126.3245945868225,723.8097491669555 A 243.95189159305863,243.95189159305863 0 0 0 1142.8405565279816,711.8336388658101"/><text x="1321.6759457965293" y="520.5" text-anchor="start" style="font-color:black;font-weight:normal" transform="rotate(414.0532544378698,991.5,520.5)">1%&#160;&#160;&#160;Vibrio cholerae O1 biovar El Tor</text><line x1="1399.65" y1="520.5" x2="1416.15" y2="520.5" class="tick" transform="rotate(417.5147928994083,991.5,520.5)"/><text x="1418.9" y="520.5" text-anchor="start" style="font-color:black;font-weight:normal" transform="rotate(417.5147928994083,991.5,520.5)">1 more</text><path class="line" d=" M 1096.4596551347984,692.3158275463657 A 201.33854027845308,201.33854027845308 0 0 0 1102.7735256549142,688.2957397843682"/><line x1="1098.6490519200013" y1="922.8779823407897" x2="1014.144372163689" y2="605.536653328505"/><path class="line" d=" M 1014.144372163689,605.536653328505 A 88,88 0 0 0 1033.8369710431862,597.6464897638799"/><text x="991.5" y="621.8456540034224" text-anchor="middle" style="font-color:black;font-weight:normal" transform="rotate(338.1656804733728,991.5,520.5)">Bacteroidales</text><line x1="1098.2356540034225" y1="520.5" x2="1105.9356540034225" y2="520.5" class="tick" transform="rotate(428.1656804733728,991.5,520.5)"/><path class="line" d=" M 1047.3926222867024,659.999134840503 A 150.27971868263793,150.27971868263793 0 0 0 1063.799864752784,652.2449179439645"/><line x1="1146.369120891372" y1="907.0288028004298" x2="1047.3926222867024" y2="659.999134840503"/><text x="991.5" y="686.0973651613824" text-anchor="middle" style="font-color:black;font-weight:normal" transform="rotate(334.7041420118343,991.5,520.5)">Prevo...aceae</text><path class="line" d=" M 1066.3826194391838,707.3951607382724 A 201.33854027845308,201.33854027845308 0 0 0 1088.3643630641616,697.0063822348432"/><text x="1300.3692701392265" y="520.5" text-anchor="start" style="font-color:black;font-weight:normal" transform="rotate(424.7041420118343,991.5,520.5)">2%&#160;&#160;&#160;Prevotella</text><path class="line" d=" M 1030.1703395284562,665.719140226372 A 150.27971868263793,150.27971868263793 0 0 0 1047.3926222867024,659.999134840503"/><text x="991.5" y="706.5208937997086" text-anchor="middle" style="font-color:black;font-weight:normal" transform="rotate(341.62721893491124,991.5,520.5)">uncl...ales</text><path class="line" d=" M 1043.308918601809,715.0585869468871 A 201.33854027845308,201.33854027845308 0 0 0 1066.3826194391838,707.3951607382724"/><text x="1300.3692701392265" y="520.5" text-anchor="start" style="font-color:black;font-weight:normal" transform="rotate(431.62721893491124,991.5,520.5)">2%&#160;&#160;&#160;Bacteroidales bacterium CF</text></svg>